<?xml version="1.0" standalone="no"?>
<!DOCTYPE svg PUBLIC "-//W3C//DTD SVG 1.1//EN" "http://www.w3.org/Graphics/SVG/1.1/DTD/svg11.dtd" >
<svg xmlns="http://www.w3.org/2000/svg" xmlns:xlink="http://www.w3.org/1999/xlink" version="1.1">
<metadata>
Created by FontForge 20200427 at Sun Nov 20 01:27:02 2011
 By www
Copyright (c) 2011, Dmitriy O Kardash
</metadata>
<defs>
<font id="SchoolCursive" horiz-adv-x="581" >
  <font-face 
    font-family="School Cursive"
    font-weight="400"
    font-stretch="normal"
    units-per-em="2048"
    panose-1="2 0 5 0 0 0 0 0 0 0"
    ascent="1638"
    descent="-410"
    x-height="699"
    cap-height="1403.5"
    bbox="-565.715 -1040.41 1993 1637"
    underline-thickness="150"
    underline-position="-292"
    unicode-range="U+0020-02DC"
  />
<missing-glyph horiz-adv-x="1935" 
 />
    <glyph glyph-name=".notdef" unicode=" " horiz-adv-x="1935" 
 />
    <glyph glyph-name=".notdef" unicode="&#xa0;" horiz-adv-x="1935" 
 />
    <glyph glyph-name="exclam" unicode="!" horiz-adv-x="395" 
d="M101 202q323 1109 389 1090t-354 -1100zM115.5 77q8.5 -39 -36.5 -65.5t-57 34.5t36.5 65.5t57 -34.5z" />
    <glyph glyph-name="quotedbl" unicode="&#x22;" horiz-adv-x="296" 
d="M-5 1152q64 146 79 247q-32 27 -18 60t51 20t21.5 -70.5t-133.5 -256.5zM133 1150q64 146 79 247q-32 27 -18 60t51 20t21.5 -70.5t-133.5 -256.5z" />
    <glyph glyph-name="numbersign" unicode="#" horiz-adv-x="806" 
d="M308 571l-64 -214l171 4l62 211zM376 955l47 -4l-106 -342l170 -4l90 342l54 5l-105 -348l171 11l-8 -45l-177 -2l-61 -209l199 19l-6 -54l-202 4l-89 -328h-44l95 322l-168 -5l-92 -313l-45 -4l99 319l-183 -6l22 42l167 -2l68 221l-199 -4l23 55l187 -13z" />
    <glyph glyph-name="dollar" unicode="$" horiz-adv-x="691" 
d="M500 1087l-14 -65q46 -5 100.5 -33t76.5 -145l-33 -3q-13 86 -61.5 111.5t-90.5 30.5l-77 -396q113 -65 160 -143.5t24 -167t-103.5 -142t-196.5 -50.5l-33 -153h-50l33 152q-194 39 -213 211h34q17 -104 77.5 -138t109.5 -34l93 433q-137 71 -163.5 129t-16.5 136.5
t89 136t192 66.5l13 64h50zM379 522l-85 -389q86 -3 154 46t71.5 162t-140.5 181zM352 607l72 360q-80 -2 -152.5 -51t-71 -146.5t151.5 -162.5z" />
    <glyph glyph-name="percent" unicode="%" horiz-adv-x="1061" 
d="M419 781q44 -16 78 -53.5t42.5 -87.5t-7.5 -95q-17 -45 -54.5 -77t-88 -40t-96.5 9q-45 16 -78.5 54.5t-42 87.5t7.5 94q17 45 55.5 77.5t88.5 39.5t95 -9zM243 643q-9 -44 -3 -88t28 -74q19 -28 45 -37l6 -2q29 -9 61 5t56 50q14 22 24 48q5 15 9 30q10 44 3.5 89
t-28.5 74q-20 27 -46 37l-5 1q-28 9 -59.5 -4.5t-55.5 -49.5q-16 -24 -26 -50q-5 -14 -9 -29zM257 15l-51 18q384 366 690 823l52 -19zM905 444q44 -16 78 -53.5t42.5 -87t-7.5 -95.5q-17 -45 -54.5 -77t-88 -40t-96.5 9q-45 17 -78.5 55t-42 87t7.5 94q17 45 55.5 77.5
t88.5 39.5t95 -9zM729 306q-9 -44 -3 -88t28 -74q19 -28 45 -37l6 -2q29 -9 61 5t55 50q15 22 25 48q5 15 9 30q10 45 3.5 89.5t-28.5 73.5q-20 27 -46 37l-5 2q-28 8 -59.5 -5.5t-55.5 -49.5q-16 -23 -26 -50q-5 -14 -9 -29z" />
    <glyph glyph-name="ampersand" unicode="&#x26;" horiz-adv-x="801" 
d="M441 661q-9 -132 -170 -217q18 -119 224 -272q76 89 123 231l67 6q-80 -180 -163 -263q138 -133 264 -16l15 -29q-24 -57 -108 -67t-200 81q-147 -125 -320 -105t-173 177q0 143 201 271q-29 279 110 307t130 -104zM235 479q282 227 136.5 249t-136.5 -249zM214 405
q-240 -124 -154 -286.5t407 23.5z" />
    <glyph glyph-name="quotesingle" unicode="'" horiz-adv-x="184" 
d="M95 830q64 146 79 247q-32 27 -18 60t51 20t21.5 -70.5t-133.5 -256.5z" />
    <glyph glyph-name="parenleft" unicode="(" horiz-adv-x="347" 
d="M441 1498l111 18q-816 -1012 -388 -1751h-58q-64 72 -120.5 327t42.5 577t413 829z" />
    <glyph glyph-name="parenright" unicode=")" horiz-adv-x="386" 
d="M227.5 105.5q-140.5 -220.5 -224.5 -265.5l-55 19q655 548 234 1778l98 -54q122 -584 105 -920.5t-157.5 -557z" />
    <glyph glyph-name="asterisk" unicode="*" horiz-adv-x="397" 
d="M169 1136q-22 194 54 135l-32 -148q157 117 162 71.5t-126 -82.5q110 -118 73.5 -129t-113.5 112q-79 -126 -114 -99.5t79 107.5l-134 53q-7 87 151 -20z" />
    <glyph glyph-name="plus" unicode="+" horiz-adv-x="692" 
d="M617.5 376q-10.5 -41 -49 -21.5t-278 -0.5t-243 37t57 20t292 -15.5t221 -19.5zM285 89.5q-44 5.5 -7 67t50.5 263t70.5 227t13.5 -71t-63.5 -294t-64 -192z" />
    <glyph glyph-name="comma" unicode="," horiz-adv-x="165" 
d="M14 -233q64 146 79 247q-32 27 -18 60t51 20t21.5 -70.5t-133.5 -256.5z" />
    <glyph glyph-name="hyphen" unicode="-" 
d="M31.5 478q-3.5 45 54 21t260 15t195.5 -33t-88.5 -39t-249.5 12t-171.5 24z" />
    <glyph glyph-name="hyphen" unicode="&#xad;" 
d="M31.5 478q-3.5 45 54 21t260 15t195.5 -33t-88.5 -39t-249.5 12t-171.5 24z" />
    <glyph glyph-name="period" unicode="." horiz-adv-x="171" 
d="M40.5 68.5q13.5 49.5 60 41.5t37 -61.5t-60 -41.5t-37 61.5z" />
    <glyph glyph-name="slash" unicode="/" horiz-adv-x="684" 
d="M123 -50h-80q347 699 541 1484h80z" />
    <glyph glyph-name="zero" unicode="0" horiz-adv-x="659" 
d="M648 832.5q48 -210.5 -105 -526t-349.5 -327t-209 245.5t124 514.5t314 280.5t225.5 -187.5zM169.5 9.5q143.5 -17.5 281.5 238.5t146.5 485t-116.5 255t-243 -140.5t-167.5 -361.5t-47 -327t146 -149.5z" />
    <glyph glyph-name="one" unicode="1" horiz-adv-x="371" 
d="M3 -30q144 316 206 784q2 -6 -171 -82l-9 21q100 50 301 372l17 -26l-271 -1058z" />
    <glyph glyph-name="two" unicode="2" horiz-adv-x="719" 
d="M732 771q-16 -220 -347.5 -394.5t-316.5 -286.5q227 104 423 1q74 -82 156 76q30 -4 29 -30l-2 -30q-81 -107 -174 -107h-15q-137 203 -472 0l-13 30l2 31q13 213 357 355.5t318 354.5t-200 193.5t-220 -150.5t-60 -38q48 251 299.5 233t235.5 -238z" />
    <glyph glyph-name="three" unicode="3" horiz-adv-x="647" 
d="M619 792q-13 -172 -160 -212q157 -136 115 -346.5t-268 -233t-331 238.5q10 46 47 35q40 -214 185 -231t236.5 56.5t88 220t-81.5 191.5t-219 43l12 39q-25 -13 160.5 15t173 193.5t-170 178t-207.5 -158.5q-6 -39 -25 8q88 224 273 179.5t172 -216.5z" />
    <glyph glyph-name="four" unicode="4" horiz-adv-x="602" 
d="M261 1019l-222 -584q301 54 371 0q54 281 188 585l35 4l-337 -1027q-28 3 -49 17q134 357 145 387l-354 3q-38 0 -36 38q15 142 221 577h38z" />
    <glyph glyph-name="five" unicode="5" horiz-adv-x="660" 
d="M278 1021q100 -60 177 -60h30q64 0 168 45l13 -30q-91 -60 -213 -60q-22 0 -178 45q-104 -277 -115 -359q425 50 424.5 -238t-218 -347.5t-374.5 88.5q6 30 32 30q106 -130 302 -90.5t223.5 241t-134.5 258.5t-291 -12l-17 69q131 420 171 420z" />
    <glyph glyph-name="six" unicode="6" horiz-adv-x="656" 
d="M612.5 940.5q76.5 -63.5 68.5 -129.5q-27 -30 -35 13q-33 150 -230.5 107t-277.5 -367q132 121 298 82t168.5 -247.5t-117 -323.5t-293.5 -46t-130.5 364.5t147 428.5t214.5 157.5t187.5 -39zM282 39q230 -8 282.5 261t-188 298.5t-282.5 -261t188 -298.5z" />
    <glyph glyph-name="seven" unicode="7" horiz-adv-x="685" 
d="M210 997q78 -48 212 -53.5t291 70.5h12q24 -4 23 -24q-109 -228 -181 -461q119 12 134 12l11 -24l-162 -25q-155 -412 -194 -482l-63 -14q210 465 212 496q-296 9 -286 47l17 26q131 -36 283 -36l157 410q-64 -22 -232 -22t-231 29q-30 -129 -60 -137l-45 9
q70 109 102 179z" />
    <glyph glyph-name="eight" unicode="8" 
d="M587 864.5q24 -169.5 -192 -274.5q180 -128 127 -359.5t-281.5 -223t-230 233.5t276.5 352q-119 91 -103.5 247.5t197.5 175t206 -151zM338 609q204 59 213 212.5t-141 172t-186 -152t114 -232.5zM224 33.5q187 -10.5 261 192.5t-153 354q-250 -86 -272.5 -311
t164.5 -235.5z" />
    <glyph glyph-name="nine" unicode="9" horiz-adv-x="646" 
d="M99 53.5q-78 64.5 -70 131.5q28 31 36 -13q33 -153 234 -109t282 373q-134 -123 -302.5 -83t-171 252t118.5 328.5t298 46.5t132.5 -370.5t-149 -435.5t-217.5 -160t-191 39.5zM435 970.5q-234 8.5 -287 -265t191 -304t287 265t-191 304z" />
    <glyph glyph-name="colon" unicode=":" horiz-adv-x="301" 
d="M232.5 626.5q13.5 49.5 60 41.5t37 -61.5t-60 -41.5t-37 61.5zM42.5 185.5q13.5 49.5 60 41.5t37 -61.5t-60 -41.5t-37 61.5z" />
    <glyph glyph-name="semicolon" unicode=";" horiz-adv-x="584" 
d="M259.5 626.5q13.5 49.5 60 41.5t37 -61.5t-60 -41.5t-37 61.5zM81 -75q64 146 79 247q-32 27 -18 60t51 20t21.5 -70.5t-133.5 -256.5z" />
    <glyph glyph-name="semicolon" unicode="&#x37e;" horiz-adv-x="584" 
d="M259.5 626.5q13.5 49.5 60 41.5t37 -61.5t-60 -41.5t-37 61.5zM81 -75q64 146 79 247q-32 27 -18 60t51 20t21.5 -70.5t-133.5 -256.5z" />
    <glyph glyph-name="less" unicode="&#x3c;" horiz-adv-x="752" 
d="M58 661q219 -28 659 414l19 -58l-443 -378l332 -428l-34 -54q-245 400 -533 504z" />
    <glyph glyph-name="equal" unicode="=" horiz-adv-x="762" 
d="M134.5 614q-3.5 45 54 21t260 15t195.5 -33t-88.5 -39t-249.5 12t-171.5 24zM88.5 470q-3.5 45 54 21t260 15t195.5 -33t-88.5 -39t-249.5 12t-171.5 24z" />
    <glyph glyph-name="greater" unicode="&#x3e;" horiz-adv-x="762" 
d="M117 157l-28 54l375 428l-406 378l25 58q396 -442 618 -414q-299 -104 -584 -504z" />
    <glyph glyph-name="question" unicode="?" horiz-adv-x="798" 
d="M280 1189q280 155 406.5 45t21 -250.5t-330 -374.5t-137.5 -391l-38 11q-102 160 200.5 482.5t254 440.5t-354.5 10zM259 138.5q17 -26.5 -13 -68t-61.5 -8t13 68t61.5 8z" />
    <glyph glyph-name="at" unicode="@" horiz-adv-x="1166" 
d="M859 561l100 192l25 -7q-238 -511 -222 -583.5t76 -78t171.5 171.5t64 470.5t-468.5 220.5t-511 -489t467 -552q-606 82 -496 559.5t564.5 528.5t494 -292t-90.5 -496.5t-227.5 -161.5t-86.5 120q-91 -135 -271 -123.5t-161.5 274t281 405t291.5 -158.5zM490 78.5
q142 10.5 242 196t84 312.5q-12 157 -159.5 117t-250.5 -184.5t-80.5 -298t164.5 -143z" />
    <glyph glyph-name="A" unicode="A" horiz-adv-x="1023" 
d="M957 1102.5q-72 -354.5 -146 -584.5t-60 -334t95.5 -119t244.5 128l14 -28q-185 -179 -286 -146.5t-171 158.5q-172 -155 -320 -171t-248 103t-49.5 376.5t307.5 558t474 357t145 -298zM348.5 82q167.5 3 289.5 184.5t246.5 651.5t-68.5 427.5t-399 -258.5t-309.5 -490
t-15 -396t256 -119z" />
    <glyph glyph-name="B" unicode="B" horiz-adv-x="898" 
d="M498 1425l45 -2l-49 -141q234 104 386.5 61t147 -242.5t-306.5 -403.5q155 -110 157 -360l112 28q3 -58 -128 -95q-23 -92 -127.5 -183.5t-279 -83.5t-329.5 252q-80 -249 -107 -255h-32zM185 417l-1 -15q153 -116 376 -116q229 12 257 42q89 404 -497 387l26 31
q314 -37 485.5 91t157 292.5t-173.5 184t-315 -100.5q-93 -106 -315 -796zM170 328q121 -304 332.5 -293.5t296.5 221.5q-229 -55 -629 72z" />
    <glyph glyph-name="C" unicode="C" horiz-adv-x="803" 
d="M967 1268q4 -177 -50 -178q29 293 -190 292.5t-441 -411.5t-183.5 -671.5t259 -247.5t448.5 238q32 -5 32 -32q-225 -258 -526.5 -255.5t-299 321.5t223 697t472 401t255.5 -154z" />
    <glyph glyph-name="D" unicode="D" horiz-adv-x="1090" 
d="M1140 1262q46 -139 53 -280q236 33 172 -17l-168 -36l-28 -206q-27 -205 -92 -348.5t-163.5 -238t-271 -101.5t-203 139t-76.5 126q-92 -271 -245.5 -256.5t-120 171.5t333.5 159q314 694 364.5 820.5t106.5 179.5t174 40t164 -152zM873 1096q106 -87 257 -114
q29 194 -35 287t-148.5 90t-132 -89.5t58.5 -173.5zM740 1156q-47 -110 -361 -794q94 -26 115 -149.5t155.5 -139.5t271 132.5t205.5 662.5l3 63q-286 51 -393 206zM147 81.5q96 -8.5 158 227.5q-242 -2 -248 -110.5t90 -117z" />
    <glyph glyph-name="E" unicode="E" horiz-adv-x="736" 
d="M797 1406.5q82 -60.5 87 -148.5t-57 -178h-10q-20 0 -20 21q72 94 13.5 189.5t-207.5 65t-155.5 -228t170.5 -345.5q-335 -59 -456 -211t-103.5 -325t223.5 -204t431 138l5 -69q0 -44 -186 -87.5t-340 -3.5t-184 234.5t131 370.5t342 193q-99 115 -99 262
q34 244 183.5 315.5t231.5 11z" />
    <glyph glyph-name="F" unicode="F" horiz-adv-x="1100" 
d="M772 710l-246 -4l1 63q144 -51 262 3l249 545q-347 112 -587 1t-220 -21q459 168 729 92t551 31l59 -39q-310 -135 -467 -91l-248 -517l183 -8l-21 -46q-76 29 -178 -4q-136 -337 -301 -536t-283 -179q-115 22 -208.5 152.5t-60 136t137.5 -57.5t217 -91l-14 -23
q-155 12 -256 80q176 -270 382.5 -31t318.5 544z" />
    <glyph glyph-name="G" unicode="G" horiz-adv-x="933" 
d="M897 722q-344 -139 -452.5 -121.5t-167.5 136.5q-194 -134 -168 -62l162 116q49 285 166 499t264 151t22.5 -270.5t-395.5 -410.5q84 -219 601 37l347 634q37 -2 37 -32q-567 -1125 -722 -1265.5t-252 -137t-184.5 70.5t-154.5 244q248 -184 481 -138l-9 -25
q-160 -73 -367 46q102 -193 293 -155t499 683zM312 811q195 138 350 342t9 252q-179 67 -359 -594z" />
    <glyph glyph-name="H" unicode="H" horiz-adv-x="898" 
d="M637.5 1249.5q-43.5 -168.5 -240.5 -593.5q163 -33 195 -217l90 19l429 947q64 61 7.5 -94t-358.5 -816q158 89 137 23q-76 -60 -172 -104q-77 -172 -180 -412l-62 -2q67 272 52 380q-145 0 -259 51q-218 -430 -241 -431q-35 0 -35 35l224 431q-61 42 -62.5 108.5
t169.5 91.5q251 518 269.5 630t-56.5 66t-164 -189q-44 43 63 156t172.5 101t22 -180.5zM249 516l48 90q-144 -9 -48 -90zM365 608l-58 -123q114 -57 226 -52q-14 169 -168 175zM598 380l-15 -159l76 177z" />
    <glyph glyph-name="I" unicode="I" horiz-adv-x="966" 
d="M676 332q73 -204 322 -272l-27 -62q-139 12 -333 269q-236 -305 -423 -264t-218 351q182 -174 393 -199q-160 -48 -337 102q104 -231 253.5 -198t303.5 282q39 581 198.5 877t249 185.5t-381.5 -1071.5zM666 418q423 894 327 917t-211 -342.5t-116 -574.5z" />
    <glyph glyph-name="J" unicode="J" horiz-adv-x="535" 
d="M856 1404l-441 -1099l165 62l14 -28l-196 -84q13 -32 182 -98v-28q-102 5 -205 78q-255 -730 -428 -708.5t-140.5 225.5t493.5 539q-349 220 -256.5 743t812.5 398zM350 288l436 1061q-633 91 -699.5 -418.5t263.5 -642.5zM-38.5 -461q118.5 8 367.5 691
q-115 -76 -301.5 -262.5t-185.5 -311.5t119.5 -117z" />
    <glyph glyph-name="K" unicode="K" horiz-adv-x="808" 
d="M913 1262q-78 358 -761 -581q149 -838 606 -542l31 -32q-217 -158 -392.5 -54t-290.5 555l-25 -51l-221 -554h-38q499 1353 368.5 1375.5t-315.5 -334.5q-29 -14 -47 46q228 332 329.5 338.5t110 -125.5t-119.5 -527q539 637 660.5 651.5t104.5 -165.5z" />
    <glyph glyph-name="L" unicode="L" horiz-adv-x="992" 
d="M1281 1335.5q-38 -128.5 -421 -421.5q-219 -551 -375 -762q233 -86 339 -86t188 99h16l10 -46q-58 -129 -207.5 -116t-403.5 91q-93 -94 -254.5 -94t-187.5 120t122 127q165 -27 306 -75q171 169 361 703l-280 -124l-10 38l321 173q212 367 363 434.5t113 -61zM907 1009
q186 118 264.5 257.5t-13 85.5t-251.5 -343zM177 56.5q135 9.5 193 71.5q-196 53 -266 53t-66 -67t139 -57.5z" />
    <glyph glyph-name="M" unicode="M" horiz-adv-x="1389" 
d="M1052 1192q168 230 327 230q116 -27 116 -165.5t-263 -614t-214 -567t371 205.5h19q19 -3 19 -20v-9q-213 -242 -319 -242h-19q-116 0 -116 125q14 128 239 573t211.5 560t-104.5 96t-203 -158.5t-361.5 -663t-265.5 -523.5q-14 0 -29 29v10q568 1096 543.5 1242
t-234 17.5t-745.5 -1307.5l-19 -10q-14 0 -29 29v10q551 1073 555 1193.5t-64 126t-220 -91.5q-19 0 -19 20q116 116 258 139t100 -197q211 203 361 207.5t105 -244.5z" />
    <glyph glyph-name="N" unicode="N" horiz-adv-x="971" 
d="M570 1216q84 115 185 174t184.5 34t76.5 -145q22 -96 -229.5 -589t-239.5 -578t86.5 -73t310.5 251q51 -5 51 -34q-256 -226 -376 -256h-34q-85 27 -75 122q6 121 248 591.5t223.5 574t-169 66.5t-309.5 -313l-499 -1041q-34 0 -34 34q568 1115 557.5 1232.5t-90.5 103
t-211 -105.5q-34 0 -29 21q131 101 263 131t110 -200z" />
    <glyph glyph-name="O" unicode="O" horiz-adv-x="754" 
d="M919.5 1151q16.5 -274 -204 -721t-496.5 -428t-265.5 382.5t229 701t469.5 338.5t267.5 -273zM202.5 27q184.5 -29 414 317.5t245.5 672.5t-143.5 368t-331.5 -139.5t-289.5 -467t-98.5 -504t203.5 -247.5z" />
    <glyph glyph-name="P" unicode="P" horiz-adv-x="936" 
d="M1203.5 1074.5q7.5 -303.5 -273.5 -445.5q-103 -34 -223.5 -35t-261.5 44q-198 -473 -322.5 -586.5t-130 68.5t115 443t299.5 595t484 277t312.5 -360.5zM38 87q25 -296 623 1251q-77 3 -362.5 -476t-260.5 -775zM491 733q86 -102 311 -79t305 258t-45 354t-324 69z" />
    <glyph glyph-name="Q" unicode="Q" horiz-adv-x="833" 
d="M1043.5 1064.5q2.5 -338.5 -596.5 -952.5q262 -151 369 48l32 -16q-51 -150 -192 -142t-257 78q-101 -90 -269 -81t-164.5 123t118.5 127t308 -96q585 532 591 877t-271.5 350t-461 -270.5t-220.5 -724.5h-16q57 636 276 859t485 191t268.5 -370.5zM118.5 51
q94.5 -21 248.5 69q-144 110 -231.5 100.5t-99.5 -79t82.5 -90.5z" />
    <glyph glyph-name="R" unicode="R" horiz-adv-x="873" 
d="M989.5 1349q104.5 -84 96 -225.5t-82.5 -236t-238 -156.5t-220 -74q82 -84 61 -214.5t-32.5 -255t47 -140.5t194.5 235q82 42 77 -9q-77 -153 -175.5 -228.5t-164 -7.5t-27.5 217.5t35 249.5t-77.5 123t-142.5 23q-30 -14 -162 -344q-114 -272 -175 -294.5t-20.5 176.5
t206.5 717.5t431 523t369.5 -79.5zM358 720q254 0 450 87.5t236.5 283t-135.5 249.5t-250 9q-25 -43 -301 -629zM19 87q118 118 568 1281q-190 33 -400.5 -559t-167.5 -722z" />
    <glyph glyph-name="S" unicode="S" horiz-adv-x="905" 
d="M690 1434q34 0 51 -52q-17 -165 -135 -330q219 -476 220 -683q-4 -219 -131 -307.5t-316 -49.5t-379 308q382 -137 656 -108q-239 -100 -554 36q16 -28 147.5 -104.5t252.5 -78.5q253 8 272 288q-32 302 -199 649q-231 -318 -557 -434q322 212 538 484q-34 125 -16 238
q32 144 150 144zM576 1191l15 -94q94 165 100 227.5t-57.5 38.5t-57.5 -172z" />
    <glyph glyph-name="T" unicode="T" horiz-adv-x="1168" 
d="M1031 1287q-340 142 -587 24.5t-213 -14.5q459 168 758.5 78.5t521.5 44.5l59 -39q-310 -152 -467 -91q-400 -912 -565 -1111t-283 -179q-115 22 -208.5 152.5t-60 136t137.5 -57.5t217 -91l-14 -23q-155 12 -256 80q176 -270 389.5 -33t570.5 1123z" />
    <glyph glyph-name="U" unicode="U" horiz-adv-x="1028" 
d="M552.5 1334q-3.5 -115 -342 -775.5t-36.5 -405.5t554.5 696t315.5 567l59 14q-587 -1103 -578.5 -1233.5t96 -130.5t373.5 329l66 50h33v-17q-295 -420 -527 -428q-221 -20 0 511q-352 -495 -478 -511t-118 107.5t292 694t144.5 568t-351.5 -233.5l-16 33
q207 232 362 256t151.5 -91z" />
    <glyph glyph-name="V" unicode="V" horiz-adv-x="775" 
d="M452 1433q115 6 104 -128t-325.5 -688t-51.5 -565t495.5 426.5t343.5 937.5h34q81 -157 178.5 -153.5t304.5 137.5v-34q-27 -41 -197.5 -137t-285.5 87q-362 -1316 -821.5 -1310.5t-42 670t269 671.5t-355.5 -214h-33v50q223 250 383 250z" />
    <glyph glyph-name="W" unicode="W" horiz-adv-x="1232" 
d="M407.5 1327.5q37.5 -101.5 -197.5 -558t-227.5 -578.5t226 -113t771.5 1334l72 -2q-160 -385 -405 -871t56 -492.5t791 1365.5q71 -99 162.5 -99t319.5 99l17 -16q0 -57 -196.5 -103.5t-285.5 20.5q-242 -640 -409 -966t-394.5 -344t-216.5 267q-160 -264 -368.5 -256
t-178.5 222t235.5 600t138 456.5t-302.5 -162.5l-33 33q166 193 277 229.5t148.5 -65z" />
    <glyph glyph-name="X" unicode="X" horiz-adv-x="1350" 
d="M934.5 1296.5q27.5 -150.5 -27.5 -353.5q306 477 494 485t202 -167t-38 -185q1 494 -345 186t-415 -767.5t133 -402.5q142 -18 497 381l16 -33q-272 -416 -509.5 -433t-188.5 487q-120 -245 -276.5 -369.5t-303.5 -112.5t-176.5 146.5t36.5 134.5q-41 -214 219 -214.5
t460.5 473.5t177 671t-163 171.5t-319.5 -360.5l-48 9l-17 33q210 334 387.5 352.5t205 -132z" />
    <glyph glyph-name="Y" unicode="Y" horiz-adv-x="499" 
d="M147.5 624q-50.5 93 95.5 384.5t93 335.5t-257 -146h-10v11q147 186 244.5 193t85.5 -79.5t-148.5 -410.5t84.5 -308t521 810l43 5q0 -22 -325 -734q106 61 125 61l11 -21q-198 -136 -200 -189q-240 -515 -420 -536q-142 -17 -138.5 117.5t544.5 496.5l25 43
q-96 -86 -209.5 -106t-164 73zM107 52.5q109 15.5 359 497.5q-426 -288 -447 -400.5t88 -97z" />
    <glyph glyph-name="Z" unicode="Z" horiz-adv-x="1124" 
d="M951 1069.5q-42 -404.5 -789 -911.5q203 22 228 -60q163 91 245 91l12 -25q-208 -80 -254 -127q-57 -506 -295 -593t-269.5 89t490.5 529q-38 84 -207 57l-89 -7q750 525 824 896t-205 378.5t-466 -555.5l-35 8q133 554 492.5 594.5t317.5 -364zM63 -509q173 75 279 523
q-471 -268 -461.5 -433t182.5 -90z" />
    <glyph glyph-name="bracketleft" unicode="[" horiz-adv-x="629" 
d="M104 4l439 11l-35 -65h-503q347 699 541 1484h40l370 4l-36 -53l-323 -6z" />
    <glyph glyph-name="backslash" unicode="\" horiz-adv-x="700" 
d="M16 1434h80q195 -785 541 -1484h-80z" />
    <glyph glyph-name="bracketright" unicode="]" horiz-adv-x="920" 
d="M946 1379l-318 6l1 53l367 -4h40q-355 -785 -498 -1484h-503l11 65l431 -11z" />
    <glyph glyph-name="asciicircum" unicode="^" horiz-adv-x="664" 
d="M662 599l-42 -44l-292 395l-305 -394l-44 22q340 376 317 492l60 13q9 -214 306 -484z" />
    <glyph glyph-name="underscore" unicode="_" horiz-adv-x="1024" 
d="M-16 -106h1056l6 -25q-259 -21 -1050 -2z" />
    <glyph glyph-name="grave" unicode="`" horiz-adv-x="442" 
d="M409 900l-30 6l-271 167q-26 16 -38.5 32.5t-12.5 34.5q0 25 11.5 32t26.5 4.5t14.5 -37t70.5 -87.5z" />
    <glyph glyph-name="a" unicode="a" horiz-adv-x="903" 
d="M562 525l100 192l25 -7q-238 -511 -221.5 -583.5t69 -80.5t342.5 227q119 54 -13 -59q-219 -188 -336 -201t-105 115q-92 -135 -271.5 -123.5t-161.5 264.5t281 405t291 -149zM193.5 42.5q141.5 10.5 241.5 196t85 312.5q-13 157 -160 117t-250.5 -184.5t-80.5 -298
t164.5 -143z" />
    <glyph glyph-name="b" unicode="b" horiz-adv-x="697" 
d="M320 593q102 -74 176 -77.5t225 59.5q23 9 4 -35q-70 -44 -294 -69q-30 -410 -335 -471q-135 -2 -122.5 148t154.5 505l-135 -117q-50 -20 -50 1v10l223 193q359 802 477.5 821.5t130 -102.5t-573.5 -793q-146 -246 -183.5 -433t113.5 -174t214.5 212.5t-46.5 307.5z
M213 781q353 366 443 514t81 204.5t-93 44.5t-431 -763z" />
    <glyph glyph-name="c" unicode="c" horiz-adv-x="537" 
d="M518.5 670.5q2.5 -93.5 -26.5 -93.5q9 173 -120 128t-235 -213t-86.5 -310.5t136.5 -131t248 103.5q87 90 138 38q-239 -191 -401 -192t-170 178t120.5 370.5t261 203.5t135 -81.5z" />
    <glyph glyph-name="d" unicode="d" horiz-adv-x="781" 
d="M907 1280q-310 -640 -456 -1037q-68 -199 40 -188t339 252q35 14 9 -52q-179 -204 -410 -255q-67 0 -67 121q-110 -102 -231 -110q-176 30 -138.5 244t179.5 327t238 119t115 -127l318 688zM440 341q65 180 44.5 267.5t-173.5 9t-219 -205t-55 -229.5t135.5 -113
t267.5 271z" />
    <glyph glyph-name="e" unicode="e" horiz-adv-x="662" 
d="M615.5 561.5q-19.5 -188.5 -492.5 -381.5q16 -115 198.5 -136t302 64t109.5 30q-157 -136 -403 -123.5t-269 164.5q-125 -8 -168 13v12q69 -5 172 21q190 509 380 517t170.5 -180.5zM124 233q428 153 450 319.5t-146 146t-304 -465.5z" />
    <glyph glyph-name="f" unicode="f" horiz-adv-x="430" 
d="M704.5 1254q-6.5 -228 -636.5 -960q-580 -1172 -269 -931t310 900q278 -84 353 -15q-62 -130 -313 -54q14 -632 -370.5 -891t225.5 971l-201 -231h-18l2 69l248 258q356 1055 516 1083.5t153.5 -199.5zM142 490q528 587 525 755t-130.5 142.5t-394.5 -897.5z" />
    <glyph glyph-name="g" unicode="g" horiz-adv-x="636" 
d="M562 697q35 144 57 144q19 -44 22 -67q-249 -586 -286 -670q309 234 320 212v-22l-348 -283l-133 -338q-257 -703 -429 -713t-149 224t661 834l33 84q-71 -125 -175.5 -108.5t-121.5 134.5t18.5 274.5t140.5 262t228.5 118.5t161.5 -86zM165 35q223 56 364 628
q-94 152 -261.5 32.5t-209.5 -395t107 -265.5zM-224.5 -985.5q158.5 22.5 504.5 956.5q-598 -565 -630.5 -772t126 -184.5z" />
    <glyph glyph-name="h" unicode="h" horiz-adv-x="727" 
d="M406 779l-157 -171q169 30 240.5 -74.5t18 -250.5t-20.5 -219t296 165l12 -21q-187 -208 -276 -203t-98 82.5t49.5 258t-82.5 219.5t-255.5 -240t-161.5 -325h-18v20l220 525l-202 -155l16 56l216 188l254 576q84 188 233.5 123t-284.5 -554zM290 725q395 435 392.5 519
t-88.5 50.5t-160 -236.5t-144 -333z" />
    <glyph glyph-name="i" unicode="i" horiz-adv-x="431" 
d="M355 927q35 -10 35 -46q-9 -43 -53 -42q-35 10 -38 42q5 46 56 46zM337 720q-172 -174 -261.5 -483t207.5 -127t88 15.5t-333 -99.5t209 690z" />
    <glyph glyph-name="j" unicode="j" horiz-adv-x="408" 
d="M446 799h27v-27q0 -27 -27 -27t-27 27q4 27 27 27zM406 664l13 -27q0 -35 -214 -464l228 155l13 -27l-275 -209q-237 -525 -358 -547t-114 109.5t442 492.5l251 517h14zM-185 -430.5q92 13.5 288 489.5q-382 -301 -381 -402t93 -87.5z" />
    <glyph glyph-name="k" unicode="k" horiz-adv-x="667" 
d="M185 393l-137 -389l-41 -2l200 546l-150 -119l-27 21l185 153q189 709 357 727.5t105.5 -149t-427.5 -609.5q107 118 210 99.5t90.5 -131.5t-280.5 -187q171 -64 120.5 -223t295.5 -19l1 -24q-393 -174 -340 20.5t-144 268.5q91 9 204 48t109 138.5t-137 60t-194 -229.5z
M257 622q504 611 342.5 659t-342.5 -659z" />
    <glyph glyph-name="l" unicode="l" horiz-adv-x="495" 
d="M791.5 1169.5q-12.5 -132.5 -505.5 -676.5q-249 -462 -146.5 -445.5t352.5 232.5l28 -1q-134 -185 -314.5 -249.5t-169.5 31t169 372.5l-173 -164l-30 15q0 17 261 266q326 739 433.5 745.5t95 -126zM350 637q362 432 381 519t-50.5 85.5t-330.5 -604.5z" />
    <glyph glyph-name="m" unicode="m" horiz-adv-x="1175" 
d="M260 766q5 -2 5 -23q0 -20 -59 -214q162 220 304 239q78 -9 95 -89.5t-65 -270.5q151 284 279.5 323t145 -65t-65 -282t-93.5 -283t68.5 -65.5t186 135.5t152.5 114v-12q-134 -173 -332 -250.5t-66.5 247.5t99 410t-157 -31t-376.5 -643l-21 -3q22 89 155 421.5
t-81 263.5t-453 -663q-67 -9 280 741z" />
    <glyph glyph-name="n" unicode="n" horiz-adv-x="805" 
d="M299 788q34 -5 10 -42q-84 -198 -38 -137q158 131 245 133.5t122 -66t-87 -363t-24 -268t293 218.5l11 -33q-155 -160 -320 -231q-68 -5 -56 72q0 105 106 386t-45 250q-260 -5 -525 -705q-48 -3 -15 69q152 353 323 716z" />
    <glyph glyph-name="o" unicode="o" horiz-adv-x="550" 
d="M505 605q108 -36 203 59l14 -10q-88 -112 -215 -94q12 -148 -97.5 -352.5t-262 -205t-161 202t119.5 364.5t257 162.5t142 -126.5zM141 30q105 -12 209 153.5t116.5 336t-69 192t-173.5 -77.5t-150 -228t-48 -246.5t115 -129.5z" />
    <glyph glyph-name="p" unicode="p" horiz-adv-x="794" 
d="M689 513.5q14 -193.5 -174 -399.5q138 -20 211 51q41 -3 -24.5 -60.5t-237.5 -21.5q-200 -97 -372 38l-380 -793l-50 40l676 1382l53 15l-49 -120q333 62 347 -131.5zM116 172q179 -153 341.5 -44t189 312t-189.5 161.5t-341 -429.5z" />
    <glyph glyph-name="q" unicode="q" horiz-adv-x="767" 
d="M568 558l120 218l55 -12l-306 -644q453 315 305 139q-312 -189 -311 -240q92 -857 -513 -1037l-56 -4l498 1097q-135 -94 -258.5 -14.5t-81 338.5t294 312.5t253.5 -153.5zM219 60.5q188 35.5 291 340t-165.5 262t-291 -340t165.5 -262zM-77 -961q238 47 374.5 299
t91.5 646q-37 -46 -466 -945z" />
    <glyph glyph-name="r" unicode="r" horiz-adv-x="556" 
d="M519 771l12 -43q-363 -704 -205.5 -676.5t341.5 219.5l12 -52q-206 -194 -375.5 -207.5t126.5 611.5q-207 -68 -315 36q-52 -70 -132 -81l-21 43q87 -9 150 128h43q0 -107 93 -117.5t271 139.5z" />
    <glyph glyph-name="s" unicode="s" horiz-adv-x="513" 
d="M321 594q-22 191 60 214t79.5 -71.5t-77.5 -163.5q92 -160 86 -334l91 78l2 -27l-103 -112q-44 -171 -184 -174.5t-250.5 105.5t82 39.5t323.5 66.5q40 130 -94 325q-43 -41 -185 -98t-182 -48q268 89 352 200zM359 616q67 62 59.5 128.5t-48 21t-11.5 -149.5zM35 139
q177 -114 271 -80t114 100q-100 -115 -385 -20z" />
    <glyph glyph-name="t" unicode="t" horiz-adv-x="398" 
d="M503 1230l31 -2l-153 -333q157 6 160 -12t-26 -21l-153 -1q-306 -712 -313.5 -773.5t91 -49.5t229.5 157q30 -5 30 -30q-146 -165 -314 -165q-121 40 -69 170t307 695l-146 -1q-32 -10 -32 20l37 12l162 5z" />
    <glyph glyph-name="u" unicode="u" horiz-adv-x="863" 
d="M257 729q19 -40 19 -62q-228 -386 -239 -517.5t172 -48.5t481 620q45 8 45 -54q-313 -471 -208.5 -595.5t326.5 168.5q53 24 31 -37q-131 -203 -319 -197.5t-68 318.5q-253 -313 -413 -324q-95 21 -95 125q29 219 268 604z" />
    <glyph glyph-name="v" unicode="v" horiz-adv-x="659" 
d="M210 709q-291 -610 -93 -644.5t428 574.5l35 86q110 -86 206 -86l60 33q-41 -133 -238 -40q-200 -416 -331 -533t-202.5 -90t-87 146.5t132.5 463.5q-94 -40 -130 -40l-18 40q108 41 238 90z" />
    <glyph glyph-name="w" unicode="w" horiz-adv-x="1052" 
d="M241 752l5 -17q-253 -411 -231.5 -560t150 -118t259.5 369.5t199 326.5q-287 -567 -231.5 -644t212 -3t327.5 623q216 -151 287 -99q0 -115 -246 40q-228 -661 -534 -670q-101 17 -98 125q-135 -122 -259 -115.5t-109 178.5t200 502l-107 -73q-80 -32 -80 10
q182 124 256 125z" />
    <glyph glyph-name="x" unicode="x" horiz-adv-x="833" 
d="M529.5 663q18.5 -76 -10.5 -180q112 207 217 233.5t146.5 -59t-5.5 -71.5q-62 147 -219.5 25t-174 -329t82.5 -205q90 -40 271 167l10 -17q-154 -212 -293.5 -220.5t-118.5 248.5q-67 -125 -152 -194.5t-177 -59.5t-111.5 81t19.5 71q-9 -104 131.5 -95.5t258 238
t100 303.5t-96.5 82.5t-184 -151.5l-29 4l-10 17q118 170 222.5 179t123 -67z" />
    <glyph glyph-name="y" unicode="y" horiz-adv-x="610" 
d="M593 699h37q0 -48 -286 -629q237 151 286 173l18 -37l-348 -225l-127 -249q-201 -510 -371.5 -580t-207.5 109.5t652 743.5l93 163q-201 -154 -302 -130.5t-7 315t143 328.5l37 -18q-301 -599 -99 -585.5t482 621.5zM-197 -801q155 56 412 721q-623 -521 -595 -649
t183 -72z" />
    <glyph glyph-name="z" unicode="z" horiz-adv-x="534" 
d="M483 537.5q-19 -179.5 -363 -431.5l16 -68q77 30 442 259l2 -35l-422 -265q-211 -778 -485 -891t-233.5 192t642.5 713q8 89 -84 63l-15 20q442 264 473 425.5t-114.5 173.5t-335.5 -167q-38 0 -38 38q156 153 345 153t170 -179.5zM-318 -839.5q231 111.5 424 803.5
q-536 -334 -595.5 -624.5t171.5 -179z" />
    <glyph glyph-name="braceleft" unicode="{" horiz-adv-x="540" 
d="M133 732q241 25 339.5 310t161.5 346.5t127 61.5h64l-19 -46h-53q-35 0 -74.5 -31.5t-133.5 -322t-319 -340.5q53 -108 38 -200t-95.5 -299.5t-60.5 -255.5t300 9l-25 -67q-128 -6 -271.5 -0.5t29 339t-7.5 496.5z" />
    <glyph glyph-name="bar" unicode="|" horiz-adv-x="415" 
d="M166 1443l69 14l18 -1533l-69 -4q49 755 -18 1523z" />
    <glyph glyph-name="braceright" unicode="}" horiz-adv-x="559" 
d="M349.5 200q-25.5 -268 -167 -288.5t-266.5 -14.5l16 67q246 -57 307 19.5t81.5 210.5t69.5 237t162 205q-152 82 -40 391t47.5 336t-163.5 1l-14 52l46 -7q77 27 175 -17q47 -165 -71 -423q-118 -259 114 -326q-271 -175 -296.5 -443z" />
    <glyph glyph-name="guillemotleft" unicode="&#xab;" horiz-adv-x="732" 
d="M50 499q137 12 373 263l10 -38l-233 -242l175 -287l-18 -35q-112 227 -307 339zM292 496q137 12 373 263l10 -38l-233 -242l175 -287l-18 -35q-112 227 -307 339z" />
    <glyph glyph-name="guillemotright" unicode="&#xbb;" horiz-adv-x="722" 
d="M304 144l-11 37l222 253l-188 278l16 36q189 -288 322 -324q-211 -76 -361 -280zM57 152l-12 38l222 252l-188 278l17 36q188 -288 321 -324q-211 -76 -360 -280z" />
    <glyph glyph-name="tilde" unicode="&#x2dc;" horiz-adv-x="573" 
d="M552 1047q-28 -31 -74 -40.5t-112 1.5h-3q-42 7 -92 24q-53 17 -93 24q-33 5 -53 1.5t-36 -18.5l-45 7q27 32 74 42.5t114 -0.5q38 -7 92 -24q51 -17 91 -23l4 -1q30 -5 50.5 -1.5t37.5 16.5z" />
  </font>
</defs>
</svg>
